<svg version="1.1" id="Layer_1" xmlns="http://www.w3.org/2000/svg" xmlns:xlink="http://www.w3.org/1999/xlink" x="0px" y="0px"
	 width="100%" viewBox="0 0 467 337" enable-background="new 0 0 467 337" xml:space="preserve">
<path fill="#FFFFFF" opacity="1.000000" stroke="none" 
	d="
M300.000000,338.000000 
	C200.030930,338.000000 100.561867,338.000000 1.046402,338.000000 
	C1.046402,225.732544 1.046402,113.465057 1.046402,1.098788 
	C156.552353,1.098788 312.104797,1.098788 467.828613,1.098788 
	C467.828613,113.333122 467.828613,225.666534 467.828613,338.000000 
	C412.131805,338.000000 356.315887,338.000000 300.000000,338.000000 
M198.188843,73.908272 
	C195.944107,73.328278 193.699371,72.748276 190.596588,72.323555 
	C186.810181,72.331612 183.009537,72.134537 179.240677,72.395775 
	C173.580811,72.788086 167.943207,73.501640 161.578644,74.171936 
	C156.144272,76.484016 152.408432,80.344276 150.296906,86.578979 
	C150.235550,87.237785 150.174210,87.896591 150.362625,89.397255 
	C150.289932,90.225838 150.154709,91.054329 150.153564,91.883011 
	C150.106918,125.830544 150.058487,159.778091 150.075226,193.725632 
	C150.076096,195.509964 150.642990,197.294022 150.925629,199.795593 
	C151.374115,201.374603 151.822617,202.953613 152.129196,205.377792 
	C152.572586,207.231491 152.507095,209.457031 153.544479,210.876678 
	C159.023529,218.374802 166.797562,221.899780 175.884460,221.941284 
	C208.352081,222.089523 240.828445,222.415497 273.285706,221.817154 
	C288.698730,221.533020 299.089325,212.173401 299.006195,195.618362 
	C298.970215,188.458878 298.967377,181.298782 299.024414,174.139572 
	C299.040253,172.151215 298.872162,170.174118 302.188385,170.514572 
	C309.249847,171.239548 316.398590,172.236282 323.432465,171.811569 
	C331.425934,171.328903 338.836487,168.940353 344.088837,161.679901 
	C348.103790,156.129883 348.838715,150.016159 348.900696,143.814957 
	C349.143555,119.507797 349.092438,95.196259 348.954163,70.887459 
	C348.899475,61.272209 348.480072,51.651749 347.954620,42.048550 
	C347.455658,32.928680 339.573608,24.903389 330.997009,24.993567 
	C319.850189,21.384916 308.411987,23.538229 296.243683,23.145716 
	C294.810516,23.187189 293.377319,23.228664 291.322174,23.113512 
	C290.900665,23.163120 290.479187,23.212727 289.132446,23.127226 
	C285.077484,23.167688 281.022552,23.208151 276.501129,23.141645 
	C276.501129,23.141645 276.034088,23.246187 275.174469,23.115051 
	C273.442902,23.179314 271.711304,23.243578 269.089569,23.149046 
	C266.378693,23.184673 263.667847,23.220303 260.186676,23.079042 
	C259.139984,23.135284 258.093323,23.191526 256.138641,23.130716 
	C253.088028,23.196428 250.037399,23.262138 246.241394,23.164831 
	C245.481125,23.191549 244.720840,23.218269 243.046738,23.063311 
	C235.042496,23.110556 227.038239,23.157801 218.207169,23.108408 
	C210.857468,23.193094 205.379318,26.299204 202.025803,33.091843 
	C202.025803,33.091843 202.033493,33.230858 201.686203,33.334152 
	C201.457840,33.483032 201.363876,33.692318 201.064178,34.634930 
	C200.700607,36.091614 200.337021,37.548294 199.394821,39.603813 
	C199.240524,51.067806 199.086227,62.531803 198.188843,73.908272 
M229.769165,251.650574 
	C229.769165,254.304214 229.769165,256.957855 229.769165,259.788086 
	C226.113419,259.788086 222.726364,259.788086 218.837158,259.788086 
	C218.837158,254.393356 218.837158,249.327377 218.837158,244.414825 
	C216.070358,244.414825 213.829773,244.414825 211.653992,244.414825 
	C211.653992,258.293610 211.653992,271.826263 211.653992,285.286407 
	C214.314484,285.286407 216.561417,285.286407 219.236542,285.286407 
	C219.236542,279.010101 219.236542,273.085938 219.236542,267.140686 
	C222.953125,267.140686 226.227997,267.140686 229.871582,267.140686 
	C229.871582,273.343781 229.871582,279.294525 229.871582,285.322144 
	C232.475693,285.322144 234.705032,285.322144 236.999390,285.322144 
	C236.999390,271.443695 236.999390,257.890900 236.999390,244.403839 
	C234.455734,244.403839 232.229355,244.403839 229.768997,244.403839 
	C229.768997,246.720535 229.768997,248.707489 229.769165,251.650574 
M364.651520,285.652649 
	C366.257751,285.575287 367.863983,285.497894 369.905945,285.399536 
	C369.905945,279.077545 369.905945,273.167725 369.905945,267.226013 
	C373.593445,267.226013 376.809662,267.226013 380.490295,267.226013 
	C380.490295,273.461243 380.490295,279.367432 380.490295,285.344330 
	C383.205078,285.344330 385.445068,285.344330 387.729553,285.344330 
	C387.729553,271.478363 387.729553,257.927002 387.729553,244.361481 
	C385.180023,244.361481 382.942200,244.361481 380.168610,244.361481 
	C380.168610,249.698761 380.168610,254.760849 380.168610,259.734375 
	C376.400574,259.734375 373.189850,259.734375 369.653748,259.734375 
	C369.653748,254.416656 369.653748,249.474014 369.653748,244.442108 
	C366.948334,244.442108 364.594696,244.442108 362.020691,244.442108 
	C362.020691,257.445557 361.981781,270.073761 362.096558,282.700531 
	C362.105469,283.681793 363.191864,284.653259 364.651520,285.652649 
M181.144211,284.859955 
	C186.600983,281.996857 187.395218,277.054688 186.962997,271.627472 
	C186.546280,266.395050 183.052521,263.838654 178.546494,262.202576 
	C176.516830,261.465607 174.468765,260.752625 172.510757,259.851257 
	C169.632935,258.526489 167.735886,256.190063 169.020782,253.102814 
	C169.686493,251.503342 171.918854,249.757187 173.616867,249.558334 
	C176.800140,249.185547 178.192612,251.624176 178.457352,254.659393 
	C178.494781,255.088364 178.888809,255.486221 178.985748,255.660751 
	C181.450439,255.660751 183.679169,255.660751 187.324966,255.660751 
	C185.525131,251.782501 184.865021,247.904724 182.568451,245.931732 
	C178.034042,242.036179 172.286575,242.521500 166.985962,244.794312 
	C161.997803,246.933105 160.820419,251.362198 160.973557,256.374512 
	C161.145782,262.011749 164.430008,265.098572 169.353973,266.948456 
	C171.837036,267.881317 174.770096,268.364380 176.608643,270.032745 
	C178.132629,271.415680 179.264801,274.429779 178.858780,276.361359 
	C178.532990,277.911255 175.556046,280.014526 173.908463,279.887604 
	C171.960800,279.737518 169.939560,277.672150 168.419037,276.008514 
	C167.607758,275.120880 167.784424,273.330261 167.583725,272.299194 
	C164.881119,272.299194 162.644577,272.299194 160.415634,272.299194 
	C160.556625,281.807373 164.053787,285.992798 172.087769,286.164429 
	C174.857895,286.223541 177.645004,285.486877 181.144211,284.859955 
M278.236572,265.585724 
	C276.479919,272.102356 274.723297,278.618988 272.950806,285.194366 
	C279.850922,286.062317 279.850922,286.062317 283.706909,275.967773 
	C286.914520,275.967773 290.195892,275.967773 293.421814,275.967773 
	C297.900299,286.549530 297.900299,286.549530 304.148865,284.721741 
	C300.694153,271.267822 297.236694,257.803162 293.755280,244.245361 
	C290.488464,244.245361 287.526855,244.245361 284.237946,244.245361 
	C282.327850,251.117355 280.422943,257.970642 278.236572,265.585724 
M266.198303,278.965363 
	C262.246429,278.965363 258.294556,278.965363 254.273041,278.965363 
	C254.273041,274.841888 254.273041,271.172363 254.273041,267.136597 
	C259.100616,267.136597 263.535706,267.136597 267.961304,267.136597 
	C267.961304,264.841522 267.961304,262.924042 267.961304,260.674286 
	C263.255341,260.674286 258.818817,260.674286 254.170105,260.674286 
	C254.170105,257.273163 254.170105,254.213318 254.170105,250.719025 
	C259.205414,250.719025 263.957458,250.719025 268.875885,250.719025 
	C268.875885,248.364426 268.875885,246.447388 268.875885,244.350433 
	C261.270081,244.350433 253.888107,244.350433 246.399597,244.350433 
	C246.399597,258.166443 246.399597,271.694336 246.399597,285.317444 
	C254.271149,285.317444 261.824554,285.317444 269.820251,285.317444 
	C268.885956,282.874023 271.910919,279.454376 266.198303,278.965363 
M155.153168,257.307251 
	C154.905228,248.922928 152.278214,244.866623 145.887329,244.278580 
	C140.830276,243.813263 135.696213,244.184921 130.420578,244.184921 
	C130.420578,258.128723 130.420578,271.649170 130.420578,285.376434 
	C132.954178,285.376434 135.194473,285.376434 137.919083,285.376434 
	C137.919083,282.510803 137.919083,279.894135 137.919083,277.277466 
	C137.919083,274.539154 137.919083,271.800873 137.919083,269.113403 
	C150.858536,268.591675 153.630478,266.748413 155.153168,257.307251 
M116.359062,250.789078 
	C118.603058,250.789078 120.847046,250.789078 123.061516,250.789078 
	C123.061516,248.148849 123.061516,246.227234 123.061516,244.358856 
	C115.514008,244.358856 108.282654,244.358856 100.988968,244.358856 
	C100.988968,258.187927 100.988968,271.739258 100.988968,285.289734 
	C103.521004,285.289734 105.753342,285.289734 108.499374,285.289734 
	C108.499374,279.226990 108.499374,273.495087 108.499374,267.233643 
	C113.402718,267.233643 117.795822,267.233643 122.121506,267.233643 
	C122.121506,264.785370 122.121506,262.888275 122.121506,260.415100 
	C117.404495,260.415100 113.032036,260.415100 108.668716,260.415100 
	C108.668716,256.937561 108.668716,254.050278 108.668716,250.789627 
	C111.129013,250.789627 113.262848,250.789627 116.359062,250.789078 
M308.496307,246.981369 
	C308.496307,259.716339 308.496307,272.451324 308.496307,285.308472 
	C316.543030,285.308472 323.947968,285.308472 331.517761,285.308472 
	C331.517761,283.146881 331.517761,281.256714 331.517761,278.954224 
	C326.318817,278.954224 321.392883,278.954224 316.046021,278.954224 
	C316.046021,267.148987 316.046021,255.751785 316.046021,242.929459 
	C312.982422,244.214752 310.746887,245.152664 308.496307,246.981369 
M339.105438,265.503326 
	C339.105438,272.087036 339.105438,278.670746 339.105438,285.235138 
	C342.055908,285.235138 344.297760,285.235138 346.966858,285.235138 
	C346.966858,273.638275 346.966858,262.386810 346.966858,250.809875 
	C350.163605,250.809875 352.939575,250.809875 355.940857,250.809875 
	C355.940857,248.396652 355.940857,246.325287 355.940857,244.411713 
	C347.064087,244.411713 338.496002,244.411713 329.935333,244.411713 
	C329.935333,246.676727 329.935333,248.600693 329.935333,251.041840 
	C333.137543,251.041840 336.032959,251.041840 339.105713,251.041840 
	C339.105713,255.876282 339.105713,260.191162 339.105438,265.503326 
z"/>
<path fill="#73B2ED" opacity="1.000000" stroke="none" 
	d="
M276.967590,23.248615 
	C281.022552,23.208151 285.077484,23.167688 289.745331,23.370119 
	C290.886871,23.498722 291.415497,23.384432 291.944153,23.270142 
	C293.377319,23.228664 294.810516,23.187189 296.974823,23.442606 
	C302.643219,23.573284 306.061798,24.982552 309.449707,29.480955 
	C314.783905,36.563606 321.822357,42.369080 328.188812,48.665207 
	C331.265625,51.708046 332.947601,56.403034 338.292908,56.901573 
	C338.980713,56.965725 339.892853,59.574829 339.915161,61.017181 
	C340.054443,70.012970 339.970093,79.012207 339.615448,87.969612 
	C335.978516,85.250732 332.741669,82.500099 329.378876,79.913216 
	C325.430542,76.875916 321.372803,73.980843 317.257996,70.565353 
	C317.059357,63.417309 316.965240,56.728001 316.877686,49.658592 
	C314.904846,48.165680 312.972626,46.201855 310.937805,46.089027 
	C302.634979,45.628662 294.300720,45.734421 285.982758,45.255905 
	C285.224060,42.985249 284.891205,40.708706 283.614746,39.268509 
	C280.099304,35.302193 276.100189,31.768431 272.485962,27.883520 
	C271.337738,26.649323 270.797943,24.849070 269.979736,23.307842 
	C271.711304,23.243578 273.442902,23.179314 275.695984,23.305843 
	C276.217468,23.496634 276.641113,23.561966 276.641113,23.561966 
	C276.641113,23.561966 276.967590,23.248615 276.967590,23.248615 
z"/>
<path fill="#FEFEFE" opacity="1.000000" stroke="none" 
	d="
M331.736481,25.136822 
	C339.573608,24.903389 347.455658,32.928680 347.954620,42.048550 
	C348.480072,51.651749 348.899475,61.272209 348.954163,70.887459 
	C349.092438,95.196259 349.143555,119.507797 348.900696,143.814957 
	C348.838715,150.016159 348.103790,156.129883 344.088837,161.679901 
	C338.836487,168.940353 331.425934,171.328903 323.432465,171.811569 
	C316.398590,172.236282 309.249847,171.239548 302.188385,170.514572 
	C298.872162,170.174118 299.040253,172.151215 299.024414,174.139572 
	C298.967377,181.298782 298.970215,188.458878 299.006195,195.618362 
	C299.089325,212.173401 288.698730,221.533020 273.285706,221.817154 
	C240.828445,222.415497 208.352081,222.089523 175.884460,221.941284 
	C166.797562,221.899780 159.023529,218.374802 153.544479,210.876678 
	C152.507095,209.457031 152.572586,207.231491 152.470551,205.164520 
	C154.869553,207.338089 156.927216,209.724930 159.047974,212.446732 
	C161.521439,214.394989 163.750015,216.653717 166.404236,217.401306 
	C168.263916,217.925095 171.084595,220.464890 173.333481,217.000565 
	C174.110184,217.001160 174.554031,217.002411 175.088440,217.399780 
	C180.787262,217.855621 186.395523,217.915359 192.335693,217.975632 
	C193.110214,217.974564 193.552795,217.972961 194.285110,218.275330 
	C195.216156,218.716949 195.857346,218.974152 196.498810,218.974899 
	C216.447800,218.998566 236.396851,219.015274 256.345673,218.955688 
	C257.566162,218.952042 258.784729,218.314240 260.336182,217.973221 
	C261.110779,217.974976 261.553406,217.975021 262.285278,218.277374 
	C266.813904,218.698715 271.240265,219.618454 275.234070,218.685745 
	C278.481140,217.927399 283.223572,219.906647 285.243164,214.991241 
	C285.489258,214.987350 285.981476,214.984955 286.324341,214.957260 
	C287.443176,213.950577 288.219147,212.971573 289.212585,211.883240 
	C289.701202,211.574631 289.888672,211.314941 290.315491,210.955917 
	C291.087646,210.272125 291.536743,209.627274 291.986969,208.736206 
	C291.988098,208.489990 291.996338,207.997650 292.356995,207.937134 
	C293.803589,203.909058 294.889557,199.941483 295.966248,195.552933 
	C295.637146,192.058044 295.102142,188.988403 295.041168,185.909378 
	C294.903229,178.942047 294.999176,171.970078 295.312988,164.961029 
	C296.650635,164.297943 297.675323,163.673828 298.953308,163.254211 
	C299.786682,163.746933 300.366791,164.035172 301.160583,164.596191 
	C303.826782,165.913071 306.211761,167.593170 308.746643,167.862534 
	C313.348694,168.351578 318.066010,167.683640 322.688965,168.062592 
	C335.048401,169.075699 345.336884,160.518814 345.101196,145.614182 
	C344.720276,121.518944 344.998993,97.413292 344.998627,73.312035 
	C344.998474,64.170181 345.346649,55.009083 344.845245,45.894764 
	C344.602509,41.482517 345.264648,35.968925 339.149658,33.593544 
	C336.578033,30.563419 334.157257,27.850121 331.736481,25.136822 
z"/>
<path fill="#1675CB" opacity="1.000000" stroke="none" 
	d="
M158.984879,212.111786 
	C156.927216,209.724930 154.869553,207.338089 152.541504,204.741943 
	C151.822617,202.953613 151.374115,201.374603 150.990936,198.965515 
	C151.066040,188.095627 151.075836,178.055817 151.432800,168.049622 
	C153.285645,169.234604 154.889481,170.279190 156.279404,171.556519 
	C161.371140,176.235809 164.898376,182.961823 172.820892,184.404388 
	C172.518494,188.682587 174.264709,190.856934 178.378464,191.559784 
	C179.746246,191.894852 180.865768,192.005264 181.996750,192.491058 
	C184.206787,196.176666 186.260544,199.595657 188.642822,202.767929 
	C191.264328,206.258743 194.187912,209.522705 196.513229,212.910477 
	C186.266251,213.025497 176.485931,213.115524 166.413223,213.237366 
	C165.731171,213.299133 165.341537,213.329086 164.591461,213.212921 
	C162.482315,212.748459 160.733597,212.430130 158.984879,212.111786 
z"/>
<path fill="#3B8AD2" opacity="1.000000" stroke="none" 
	d="
M151.085632,168.016022 
	C151.075836,178.055817 151.066040,188.095627 151.001312,198.606812 
	C150.642990,197.294022 150.076096,195.509964 150.075226,193.725632 
	C150.058487,159.778091 150.106918,125.830544 150.153564,91.883011 
	C150.154709,91.054329 150.289932,90.225838 150.457825,88.719101 
	C150.611069,87.386368 150.669098,86.731804 150.727142,86.077232 
	C152.408432,80.344276 156.144272,76.484016 162.273712,74.121391 
	C169.958618,80.675514 176.948441,87.280182 184.529007,94.443031 
	C180.848557,94.912041 178.422806,95.221161 175.688980,95.679977 
	C175.159180,95.883148 174.937424,95.936615 174.572784,96.073364 
	C174.250488,96.290596 174.109177,96.456917 173.974152,96.774315 
	C173.942322,96.893005 173.728622,97.014389 173.556671,97.141953 
	C173.180725,97.487198 173.065811,97.744690 173.027344,98.505653 
	C172.923538,103.653587 172.832352,108.337845 172.325363,113.017494 
	C169.254730,112.483620 165.660797,112.853470 164.126755,111.251167 
	C160.042328,106.985031 154.505585,103.515907 153.692078,96.779884 
	C153.625366,96.227501 152.678085,95.781464 151.082870,94.312729 
	C151.082870,103.362976 151.082870,111.193626 151.065613,119.491058 
	C151.058044,129.645721 151.067719,139.333618 151.061096,149.488113 
	C151.058411,155.975159 151.072021,161.995590 151.085632,168.016022 
z"/>
<path fill="#1D4355" opacity="1.000000" stroke="none" 
	d="
M229.769073,251.172501 
	C229.768997,248.707489 229.768997,246.720535 229.768997,244.403839 
	C232.229355,244.403839 234.455734,244.403839 236.999390,244.403839 
	C236.999390,257.890900 236.999390,271.443695 236.999390,285.322144 
	C234.705032,285.322144 232.475693,285.322144 229.871582,285.322144 
	C229.871582,279.294525 229.871582,273.343781 229.871582,267.140686 
	C226.227997,267.140686 222.953125,267.140686 219.236542,267.140686 
	C219.236542,273.085938 219.236542,279.010101 219.236542,285.286407 
	C216.561417,285.286407 214.314484,285.286407 211.653992,285.286407 
	C211.653992,271.826263 211.653992,258.293610 211.653992,244.414825 
	C213.829773,244.414825 216.070358,244.414825 218.837158,244.414825 
	C218.837158,249.327377 218.837158,254.393356 218.837158,259.788086 
	C222.726364,259.788086 226.113419,259.788086 229.769165,259.788086 
	C229.769165,256.957855 229.769165,254.304214 229.769073,251.172501 
z"/>
<path fill="#7EB7EC" opacity="1.000000" stroke="none" 
	d="
M331.366760,25.065195 
	C334.157257,27.850121 336.578033,30.563419 339.214783,33.972656 
	C339.927704,37.594677 340.846252,40.519211 340.857025,43.447075 
	C340.981171,77.230011 340.981476,111.013474 340.951935,144.796738 
	C340.950409,146.549866 340.382507,148.302521 340.040100,149.584747 
	C339.989014,143.409698 339.976044,137.705261 339.976624,131.532349 
	C339.978577,123.710396 339.967010,116.356941 339.968384,108.534904 
	C339.974152,101.380989 339.966980,94.695648 339.959839,88.010307 
	C339.970093,79.012207 340.054443,70.012970 339.915161,61.017181 
	C339.892853,59.574829 338.980713,56.965725 338.292908,56.901573 
	C332.947601,56.403034 331.265625,51.708046 328.188812,48.665207 
	C321.822357,42.369080 314.783905,36.563606 309.449707,29.480955 
	C306.061798,24.982552 302.643219,23.573284 297.400879,23.509382 
	C308.411987,23.538229 319.850189,21.384916 331.366760,25.065195 
z"/>
<path fill="#204557" opacity="1.000000" stroke="none" 
	d="
M364.214478,285.640930 
	C363.191864,284.653259 362.105469,283.681793 362.096558,282.700531 
	C361.981781,270.073761 362.020691,257.445557 362.020691,244.442108 
	C364.594696,244.442108 366.948334,244.442108 369.653748,244.442108 
	C369.653748,249.474014 369.653748,254.416656 369.653748,259.734375 
	C373.189850,259.734375 376.400574,259.734375 380.168610,259.734375 
	C380.168610,254.760849 380.168610,249.698761 380.168610,244.361481 
	C382.942200,244.361481 385.180023,244.361481 387.729553,244.361481 
	C387.729553,257.927002 387.729553,271.478363 387.729553,285.344330 
	C385.445068,285.344330 383.205078,285.344330 380.490295,285.344330 
	C380.490295,279.367432 380.490295,273.461243 380.490295,267.226013 
	C376.809662,267.226013 373.593445,267.226013 369.905945,267.226013 
	C369.905945,273.167725 369.905945,279.077545 369.905945,285.399536 
	C367.863983,285.497894 366.257751,285.575287 364.214478,285.640930 
z"/>
<path fill="#1D4355" opacity="1.000000" stroke="none" 
	d="
M180.784286,284.986847 
	C177.645004,285.486877 174.857895,286.223541 172.087769,286.164429 
	C164.053787,285.992798 160.556625,281.807373 160.415634,272.299194 
	C162.644577,272.299194 164.881119,272.299194 167.583725,272.299194 
	C167.784424,273.330261 167.607758,275.120880 168.419037,276.008514 
	C169.939560,277.672150 171.960800,279.737518 173.908463,279.887604 
	C175.556046,280.014526 178.532990,277.911255 178.858780,276.361359 
	C179.264801,274.429779 178.132629,271.415680 176.608643,270.032745 
	C174.770096,268.364380 171.837036,267.881317 169.353973,266.948456 
	C164.430008,265.098572 161.145782,262.011749 160.973557,256.374512 
	C160.820419,251.362198 161.997803,246.933105 166.985962,244.794312 
	C172.286575,242.521500 178.034042,242.036179 182.568451,245.931732 
	C184.865021,247.904724 185.525131,251.782501 187.324966,255.660751 
	C183.679169,255.660751 181.450439,255.660751 178.985748,255.660751 
	C178.888809,255.486221 178.494781,255.088364 178.457352,254.659393 
	C178.192612,251.624176 176.800140,249.185547 173.616867,249.558334 
	C171.918854,249.757187 169.686493,251.503342 169.020782,253.102814 
	C167.735886,256.190063 169.632935,258.526489 172.510757,259.851257 
	C174.468765,260.752625 176.516830,261.465607 178.546494,262.202576 
	C183.052521,263.838654 186.546280,266.395050 186.962997,271.627472 
	C187.395218,277.054688 186.600983,281.996857 180.784286,284.986847 
z"/>
<path fill="#204557" opacity="1.000000" stroke="none" 
	d="
M278.377319,265.204834 
	C280.422943,257.970642 282.327850,251.117355 284.237946,244.245361 
	C287.526855,244.245361 290.488464,244.245361 293.755280,244.245361 
	C297.236694,257.803162 300.694153,271.267822 304.148865,284.721741 
	C297.900299,286.549530 297.900299,286.549530 293.421814,275.967773 
	C290.195892,275.967773 286.914520,275.967773 283.706909,275.967773 
	C279.850922,286.062317 279.850922,286.062317 272.950806,285.194366 
	C274.723297,278.618988 276.479919,272.102356 278.377319,265.204834 
M286.640167,261.255341 
	C286.020752,263.757507 285.401306,266.259674 284.722076,269.003479 
	C287.628174,269.003479 289.991333,269.003479 292.758514,269.003479 
	C291.424561,263.903809 290.203430,259.235413 288.632996,253.231659 
	C287.792419,256.634308 287.317932,258.554901 286.640167,261.255341 
z"/>
<path fill="#204557" opacity="1.000000" stroke="none" 
	d="
M266.657654,278.966675 
	C271.910919,279.454376 268.885956,282.874023 269.820251,285.317444 
	C261.824554,285.317444 254.271149,285.317444 246.399597,285.317444 
	C246.399597,271.694336 246.399597,258.166443 246.399597,244.350433 
	C253.888107,244.350433 261.270081,244.350433 268.875885,244.350433 
	C268.875885,246.447388 268.875885,248.364426 268.875885,250.719025 
	C263.957458,250.719025 259.205414,250.719025 254.170105,250.719025 
	C254.170105,254.213318 254.170105,257.273163 254.170105,260.674286 
	C258.818817,260.674286 263.255341,260.674286 267.961304,260.674286 
	C267.961304,262.924042 267.961304,264.841522 267.961304,267.136597 
	C263.535706,267.136597 259.100616,267.136597 254.273041,267.136597 
	C254.273041,271.172363 254.273041,274.841888 254.273041,278.965363 
	C258.294556,278.965363 262.246429,278.965363 266.657654,278.966675 
z"/>
<path fill="#4E9BDF" opacity="1.000000" stroke="none" 
	d="
M199.973450,39.004978 
	C200.337021,37.548294 200.700607,36.091614 201.374207,34.210777 
	C201.854599,33.635265 201.971008,33.450012 202.033493,33.230858 
	C202.033493,33.230858 202.025803,33.091843 202.446671,33.065811 
	C209.054077,38.416695 215.286026,43.743404 221.362106,49.242374 
	C222.023575,49.841034 221.939392,51.433319 221.940628,52.565006 
	C221.950623,61.717548 221.898285,70.870155 221.533539,79.973015 
	C216.473755,75.121323 211.888535,70.164299 206.942001,65.598740 
	C205.130554,63.926811 202.462402,63.183067 200.124329,61.549988 
	C200.033539,53.724373 200.003494,46.364677 199.973450,39.004978 
z"/>
<path fill="#1D4355" opacity="1.000000" stroke="none" 
	d="
M155.125473,257.740479 
	C153.630478,266.748413 150.858536,268.591675 137.919083,269.113403 
	C137.919083,271.800873 137.919083,274.539154 137.919083,277.277466 
	C137.919083,279.894135 137.919083,282.510803 137.919083,285.376434 
	C135.194473,285.376434 132.954178,285.376434 130.420578,285.376434 
	C130.420578,271.649170 130.420578,258.128723 130.420578,244.184921 
	C135.696213,244.184921 140.830276,243.813263 145.887329,244.278580 
	C152.278214,244.866623 154.905228,248.922928 155.125473,257.740479 
M140.283707,250.074020 
	C139.496170,250.630356 138.061234,251.149658 138.026947,251.749069 
	C137.815903,255.437866 137.921097,259.144745 137.921097,262.773834 
	C142.936951,263.266083 146.705536,262.763184 147.536484,257.493317 
	C148.211700,253.211121 146.376755,251.134460 140.283707,250.074020 
z"/>
<path fill="#62A5E1" opacity="1.000000" stroke="none" 
	d="
M221.864975,80.022743 
	C221.898285,70.870155 221.950623,61.717548 221.940628,52.565006 
	C221.939392,51.433319 222.023575,49.841034 221.362106,49.242374 
	C215.286026,43.743404 209.054077,38.416695 202.512970,33.044590 
	C205.379318,26.299204 210.857468,23.193094 218.876984,23.385601 
	C220.699707,23.777586 221.852600,23.892378 223.007751,24.371986 
	C223.915726,26.233883 224.607025,27.928671 225.769333,29.189137 
	C228.681259,32.347038 231.953186,35.178505 234.796005,38.392715 
	C236.775208,40.630474 238.282974,43.285213 239.540283,45.831955 
	C235.920547,45.955120 232.761993,46.008110 229.603226,46.043129 
	C223.749451,46.108021 222.894455,46.887894 222.878830,52.645477 
	C222.846786,64.451965 222.914078,76.258736 222.876709,88.065186 
	C222.826202,104.020744 222.715668,119.976105 222.409775,135.627716 
	C222.075699,133.222214 221.962753,131.120544 221.892120,128.550217 
	C221.909302,121.392326 221.884216,114.703079 221.893234,107.545586 
	C221.906555,98.059143 221.885757,89.040939 221.864975,80.022743 
z"/>
<path fill="#194052" opacity="1.000000" stroke="none" 
	d="
M115.877869,250.789352 
	C113.262848,250.789627 111.129013,250.789627 108.668716,250.789627 
	C108.668716,254.050278 108.668716,256.937561 108.668716,260.415100 
	C113.032036,260.415100 117.404495,260.415100 122.121506,260.415100 
	C122.121506,262.888275 122.121506,264.785370 122.121506,267.233643 
	C117.795822,267.233643 113.402718,267.233643 108.499374,267.233643 
	C108.499374,273.495087 108.499374,279.226990 108.499374,285.289734 
	C105.753342,285.289734 103.521004,285.289734 100.988968,285.289734 
	C100.988968,271.739258 100.988968,258.187927 100.988968,244.358856 
	C108.282654,244.358856 115.514008,244.358856 123.061516,244.358856 
	C123.061516,246.227234 123.061516,248.148849 123.061516,250.789078 
	C120.847046,250.789078 118.603058,250.789078 115.877869,250.789352 
z"/>
<path fill="#61A8E7" opacity="1.000000" stroke="none" 
	d="
M240.001358,45.753662 
	C238.282974,43.285213 236.775208,40.630474 234.796005,38.392715 
	C231.953186,35.178505 228.681259,32.347038 225.769333,29.189137 
	C224.607025,27.928671 223.915726,26.233883 223.475632,24.367304 
	C230.614349,23.746866 237.287460,23.495926 243.960571,23.244987 
	C244.720840,23.218269 245.481125,23.191549 246.624023,23.585785 
	C250.481216,27.898373 253.984955,31.764484 257.421417,35.689487 
	C260.318756,38.998714 263.137970,42.376312 265.529236,45.803711 
	C256.711609,45.840405 248.356476,45.797031 240.001358,45.753662 
z"/>
<path fill="#66ABE9" opacity="1.000000" stroke="none" 
	d="
M265.991760,45.723644 
	C263.137970,42.376312 260.318756,38.998714 257.421417,35.689487 
	C253.984955,31.764484 250.481216,27.898373 246.996704,23.667295 
	C250.037399,23.262138 253.088028,23.196428 256.818359,23.400497 
	C258.651031,23.532162 259.803986,23.394045 260.956970,23.255928 
	C263.667847,23.220303 266.378693,23.184673 269.534668,23.228445 
	C270.797943,24.849070 271.337738,26.649323 272.485962,27.883520 
	C276.100189,31.768431 280.099304,35.302193 283.614746,39.268509 
	C284.891205,40.708706 285.224060,42.985249 285.522919,45.348610 
	C278.702850,45.785900 272.347290,45.754772 265.991760,45.723644 
z"/>
<path fill="#1D4355" opacity="1.000000" stroke="none" 
	d="
M308.503815,246.535965 
	C310.746887,245.152664 312.982422,244.214752 316.046021,242.929459 
	C316.046021,255.751785 316.046021,267.148987 316.046021,278.954224 
	C321.392883,278.954224 326.318817,278.954224 331.517761,278.954224 
	C331.517761,281.256714 331.517761,283.146881 331.517761,285.308472 
	C323.947968,285.308472 316.543030,285.308472 308.496307,285.308472 
	C308.496307,272.451324 308.496307,259.716339 308.503815,246.535965 
z"/>
<path fill="#204557" opacity="1.000000" stroke="none" 
	d="
M339.105591,265.004669 
	C339.105713,260.191162 339.105713,255.876282 339.105713,251.041840 
	C336.032959,251.041840 333.137543,251.041840 329.935333,251.041840 
	C329.935333,248.600693 329.935333,246.676727 329.935333,244.411713 
	C338.496002,244.411713 347.064087,244.411713 355.940857,244.411713 
	C355.940857,246.325287 355.940857,248.396652 355.940857,250.809875 
	C352.939575,250.809875 350.163605,250.809875 346.966858,250.809875 
	C346.966858,262.386810 346.966858,273.638275 346.966858,285.235138 
	C344.297760,285.235138 342.055908,285.235138 339.105438,285.235138 
	C339.105438,278.670746 339.105438,272.087036 339.105591,265.004669 
z"/>
<path fill="#4592D7" opacity="1.000000" stroke="none" 
	d="
M175.997040,95.530273 
	C178.422806,95.221161 180.848557,94.912041 184.529007,94.443031 
	C176.948441,87.280182 169.958618,80.675514 162.632462,74.074722 
	C167.943207,73.501640 173.580811,72.788086 179.240677,72.395775 
	C183.009537,72.134537 186.810181,72.331612 191.125488,72.593750 
	C191.793060,73.571480 191.931702,74.279007 191.993073,75.357758 
	C191.963669,76.482010 192.011566,77.235039 191.984680,78.451958 
	C191.909897,84.333595 191.909897,89.751335 191.909897,95.530273 
	C186.184387,95.530273 181.090714,95.530273 175.997040,95.530273 
z"/>
<path fill="#BEC5CD" opacity="1.000000" stroke="none" 
	d="
M199.684143,39.304398 
	C200.003494,46.364677 200.033539,53.724373 200.066803,62.014450 
	C200.107300,72.300621 200.144608,81.656418 200.123062,91.476501 
	C200.105621,97.965782 200.147049,103.990784 200.131012,110.479942 
	C200.111710,117.631645 200.149857,124.319176 200.124313,131.469070 
	C199.981812,136.651810 199.903015,141.372192 199.579224,145.751297 
	C199.220612,143.592758 199.014862,141.775848 199.007919,139.958176 
	C198.950745,124.980179 198.930481,110.002029 198.941132,94.556610 
	C198.955521,89.384872 198.927795,84.680443 198.930481,79.549973 
	C198.951233,77.414551 198.941574,75.705170 198.931931,73.995796 
	C199.086227,62.531803 199.240524,51.067806 199.684143,39.304398 
z"/>
<path fill="#FEFEFE" opacity="1.000000" stroke="none" 
	d="
M198.560394,73.952034 
	C198.941574,75.705170 198.951233,77.414551 198.605591,79.504410 
	C196.190308,78.252113 194.130325,76.619324 192.070343,74.986534 
	C191.931702,74.279007 191.793060,73.571480 191.554520,72.516113 
	C193.699371,72.748276 195.944107,73.328278 198.560394,73.952034 
z"/>
<path fill="#7EB7EC" opacity="1.000000" stroke="none" 
	d="
M243.503662,23.154148 
	C237.287460,23.495926 230.614349,23.746866 223.473358,24.002487 
	C221.852600,23.892378 220.699707,23.777586 219.290405,23.433918 
	C227.038239,23.157801 235.042496,23.110556 243.503662,23.154148 
z"/>
<path fill="#7EB7EC" opacity="1.000000" stroke="none" 
	d="
M260.571838,23.167484 
	C259.803986,23.394045 258.651031,23.532162 257.272339,23.459023 
	C258.093323,23.191526 259.139984,23.135284 260.571838,23.167484 
z"/>
<path fill="#7EB7EC" opacity="1.000000" stroke="none" 
	d="
M291.633179,23.191828 
	C291.415497,23.384432 290.886871,23.498722 290.207947,23.437674 
	C290.479187,23.212727 290.900665,23.163120 291.633179,23.191828 
z"/>
<path fill="#FEFEFE" opacity="1.000000" stroke="none" 
	d="
M150.512024,86.328110 
	C150.669098,86.731804 150.611069,87.386368 150.332947,88.298172 
	C150.174210,87.896591 150.235550,87.237785 150.512024,86.328110 
z"/>
<path fill="#62A5E1" opacity="1.000000" stroke="none" 
	d="
M201.859848,33.282505 
	C201.971008,33.450012 201.854599,33.635265 201.544281,33.874313 
	C201.363876,33.692318 201.457840,33.483032 201.859848,33.282505 
z"/>
<path fill="#7EB7EC" opacity="1.000000" stroke="none" 
	d="
M276.734375,23.195129 
	C276.967590,23.248615 276.641113,23.561966 276.641113,23.561966 
	C276.641113,23.561966 276.217468,23.496634 276.125793,23.371410 
	C276.034088,23.246187 276.501129,23.141645 276.734375,23.195129 
z"/>
<path fill="#FEFEFE" opacity="1.000000" stroke="none" 
	d="
M198.899017,95.023926 
	C198.930481,110.002029 198.950745,124.980179 199.007919,139.958176 
	C199.014862,141.775848 199.220612,143.592758 199.623688,146.155304 
	C200.190811,154.023102 204.017227,158.856354 209.926422,162.721436 
	C212.062302,166.718384 219.602661,168.958786 224.716827,168.725662 
	C234.800858,168.266052 244.931381,168.218063 255.016006,168.638748 
	C259.967621,168.845306 263.875366,166.409912 263.968353,161.365005 
	C264.054260,156.705048 264.363068,151.996552 263.806488,147.402390 
	C263.572357,145.469940 261.366119,143.776413 259.990662,141.571198 
	C258.518005,140.506989 257.124634,139.307373 255.702072,139.271698 
	C246.148117,139.032196 236.587952,139.040009 227.019592,138.501129 
	C227.005676,111.204346 226.991302,84.374077 227.006775,57.543831 
	C227.010056,51.826275 228.771744,50.013680 234.380890,50.011421 
	C261.877625,50.000336 289.374390,50.026005 316.871124,50.038689 
	C316.965240,56.728001 317.059357,63.417309 317.162292,71.024033 
	C317.239441,78.296196 317.307800,84.650940 317.275818,91.456436 
	C317.235413,95.294525 317.295349,98.681854 317.247986,102.519577 
	C317.208069,111.295464 317.275482,119.620964 317.281311,128.396667 
	C316.320923,132.657654 319.285736,137.508698 313.691833,140.117584 
	C308.468079,140.375031 303.719849,140.698242 298.896973,141.388428 
	C298.673859,142.483582 298.525360,143.211731 298.010742,143.923523 
	C297.097412,142.720428 296.156677,141.559158 296.077881,140.342072 
	C295.854828,136.898392 295.984894,133.431854 295.966461,129.553299 
	C295.963287,119.763481 295.969543,110.394676 295.985229,100.579750 
	C295.331787,97.421227 294.668945,94.708832 294.003235,91.598755 
	C293.995178,90.140549 293.989929,89.080017 293.953186,87.651886 
	C292.882782,84.358925 292.553894,80.779182 287.946167,80.690811 
	C284.235870,75.145683 278.939362,72.551765 272.968262,72.372963 
	C259.999664,71.984634 247.011520,72.196243 234.032715,72.312332 
	C233.045105,72.321159 231.206390,73.528038 231.217575,74.151985 
	C231.349655,81.524445 231.759003,88.891930 232.333405,96.497299 
	C236.301041,100.614166 241.112442,99.921211 245.820343,100.035561 
	C253.225861,100.215431 260.624390,100.683868 268.073853,101.494965 
	C268.173798,130.624832 268.225769,159.289886 268.126831,188.234100 
	C267.302643,189.309982 266.629364,190.106705 265.684998,190.944580 
	C265.252258,191.071121 265.090637,191.156509 264.468781,191.193573 
	C235.678284,191.057465 207.347992,190.969650 179.010895,190.421478 
	C179.002136,163.017136 178.998566,136.073181 178.999130,109.129211 
	C178.999298,101.005394 179.011063,100.810616 186.928070,101.075615 
	C191.286346,101.221497 194.782272,100.460960 196.944885,96.293983 
	C197.256195,95.694138 198.231186,95.438728 198.899017,95.023926 
z"/>
<path fill="#EFEFEF" opacity="1.000000" stroke="none" 
	d="
M316.877686,49.658592 
	C289.374390,50.026005 261.877625,50.000336 234.380890,50.011421 
	C228.771744,50.013680 227.010056,51.826275 227.006775,57.543831 
	C226.991302,84.374077 227.005676,111.204346 226.696609,138.578094 
	C225.945541,139.167847 225.507248,139.214127 224.752899,139.093674 
	C223.834854,137.928482 223.232864,136.930023 222.630890,135.931549 
	C222.715668,119.976105 222.826202,104.020744 222.876709,88.065186 
	C222.914078,76.258736 222.846786,64.451965 222.878830,52.645477 
	C222.894455,46.887894 223.749451,46.108021 229.603226,46.043129 
	C232.761993,46.008110 235.920547,45.955120 239.540283,45.831955 
	C248.356476,45.797031 256.711609,45.840405 265.529236,45.803711 
	C272.347290,45.754772 278.702850,45.785900 285.518219,45.724323 
	C294.300720,45.734421 302.634979,45.628662 310.937805,46.089027 
	C312.972626,46.201855 314.904846,48.165680 316.877686,49.658592 
z"/>
<path fill="#66ABE9" opacity="1.000000" stroke="none" 
	d="
M317.376160,91.005692 
	C317.307800,84.650940 317.239441,78.296196 317.266785,71.482765 
	C321.372803,73.980843 325.430542,76.875916 329.378876,79.913216 
	C332.741669,82.500099 335.978516,85.250732 339.615417,87.969612 
	C339.966980,94.695648 339.974152,101.380989 339.604309,108.528893 
	C337.914368,108.376144 336.337952,108.041153 335.333801,107.097328 
	C330.809418,102.844826 326.503082,98.360718 321.992126,94.093323 
	C320.666321,92.839088 318.926331,92.022736 317.376160,91.005692 
z"/>
<path fill="#E7E8E9" opacity="1.000000" stroke="none" 
	d="
M293.984711,88.019493 
	C293.989929,89.080017 293.995178,90.140549 293.998505,92.042702 
	C294.656342,95.598175 295.316071,98.312027 295.975800,101.025879 
	C295.969543,110.394676 295.963287,119.763481 295.573944,129.650742 
	C294.792267,131.837967 294.020966,133.514664 294.056274,135.174194 
	C294.267914,145.118317 294.665070,155.058502 295.000000,165.000000 
	C294.999176,171.970078 294.903229,178.942047 295.041168,185.909378 
	C295.102142,188.988403 295.637146,192.058044 295.588867,195.640686 
	C294.145966,200.098831 293.071136,204.048233 291.996338,207.997650 
	C291.996338,207.997650 291.988098,208.489990 291.667175,208.780762 
	C290.894958,209.712646 290.443695,210.353745 289.992462,210.994843 
	C289.888672,211.314941 289.701202,211.574631 288.872559,211.916962 
	C287.537201,213.035004 286.759338,214.009979 285.981476,214.984955 
	C285.981476,214.984955 285.489258,214.987350 284.834290,214.998230 
	C278.497742,215.669846 272.812531,216.301590 267.136719,217.008789 
	C265.409851,217.223969 263.708862,217.647156 261.996033,217.975067 
	C261.553406,217.975021 261.110779,217.974976 260.038879,217.680695 
	C258.766388,217.256653 258.123322,217.014099 257.479950,217.013382 
	C237.546280,216.991226 217.612534,216.975357 197.679001,217.032562 
	C196.450241,217.036087 195.223206,217.644424 193.995377,217.971375 
	C193.552795,217.972961 193.110214,217.974564 192.039185,217.683212 
	C185.939789,217.261398 180.468826,217.132538 174.997864,217.003662 
	C174.554031,217.002411 174.110184,217.001160 172.948273,216.989563 
	C169.804092,215.772476 167.377991,214.565765 164.951889,213.359055 
	C165.341537,213.329086 165.731171,213.299133 166.773682,213.479462 
	C167.920074,213.752960 168.413635,213.871567 168.907166,213.871475 
	C203.325912,213.864227 237.744675,213.859818 272.163330,213.792923 
	C273.782562,213.789780 275.400696,213.223755 277.329346,212.906616 
	C277.953125,212.643250 278.266907,212.393173 278.916870,212.213135 
	C280.831390,211.434006 282.409760,210.584854 284.299805,209.638229 
	C288.850464,205.614761 291.378815,200.940536 291.055603,194.523590 
	C291.079346,187.706726 291.025848,181.351456 291.051758,174.533203 
	C291.075439,165.044693 291.019775,156.019135 291.040405,146.530396 
	C291.081665,136.708893 291.046692,127.350594 291.081665,117.528214 
	C291.123871,107.369499 291.096100,97.674873 291.432770,87.988419 
	C292.526367,88.004219 293.255524,88.011856 293.984711,88.019493 
z"/>
<path fill="#EEEEEE" opacity="1.000000" stroke="none" 
	d="
M340.078278,150.055389 
	C340.382507,148.302521 340.950409,146.549866 340.951935,144.796738 
	C340.981476,111.013474 340.981171,77.230011 340.857025,43.447075 
	C340.846252,40.519211 339.927704,37.594677 339.365662,34.289486 
	C345.264648,35.968925 344.602509,41.482517 344.845245,45.894764 
	C345.346649,55.009083 344.998474,64.170181 344.998627,73.312035 
	C344.998993,97.413292 344.720276,121.518944 345.101196,145.614182 
	C345.336884,160.518814 335.048401,169.075699 322.688965,168.062592 
	C318.066010,167.683640 313.348694,168.351578 308.746643,167.862534 
	C306.211761,167.593170 303.826782,165.913071 301.624329,164.491547 
	C308.310303,164.100586 314.790009,164.535080 321.166321,163.911850 
	C325.238892,163.513809 329.158508,161.551147 333.475922,160.185822 
	C335.896210,156.739594 337.987244,153.397491 340.078278,150.055389 
z"/>
<path fill="#509DE0" opacity="1.000000" stroke="none" 
	d="
M333.146698,160.289978 
	C329.158508,161.551147 325.238892,163.513809 321.166321,163.911850 
	C314.790009,164.535080 308.310303,164.100586 301.410645,164.218750 
	C300.366791,164.035172 299.786682,163.746933 298.979309,162.781830 
	C298.626953,156.049911 298.501892,149.994904 298.376831,143.939880 
	C298.525360,143.211731 298.673859,142.483582 299.366089,141.385712 
	C304.602600,141.009064 309.295410,141.002136 314.357697,141.004028 
	C315.745361,141.449890 316.992615,141.647018 317.743439,142.364044 
	C321.741852,146.182449 325.750671,150.008392 329.469757,154.092316 
	C331.053802,155.831787 331.942169,158.204849 333.146698,160.289978 
z"/>
<path fill="#F6F6F6" opacity="1.000000" stroke="none" 
	d="
M194.285110,218.275345 
	C195.223206,217.644424 196.450241,217.036087 197.679001,217.032562 
	C217.612534,216.975357 237.546280,216.991226 257.479950,217.013382 
	C258.123322,217.014099 258.766388,217.256653 259.706909,217.678986 
	C258.784729,218.314240 257.566162,218.952042 256.345673,218.955688 
	C236.396851,219.015274 216.447800,218.998566 196.498810,218.974899 
	C195.857346,218.974152 195.216156,218.716949 194.285110,218.275345 
z"/>
<path fill="#F6F6F6" opacity="1.000000" stroke="none" 
	d="
M298.010742,143.923523 
	C298.501892,149.994904 298.626953,156.049911 298.726013,162.577332 
	C297.675323,163.673828 296.650635,164.297943 295.312988,164.961029 
	C294.665070,155.058502 294.267914,145.118317 294.056274,135.174194 
	C294.020966,133.514664 294.792267,131.837967 295.583344,130.071762 
	C295.984894,133.431854 295.854828,136.898392 296.077881,140.342072 
	C296.156677,141.559158 297.097412,142.720428 298.010742,143.923523 
z"/>
<path fill="#F6F6F6" opacity="1.000000" stroke="none" 
	d="
M262.285278,218.277374 
	C263.708862,217.647156 265.409851,217.223969 267.136719,217.008789 
	C272.812531,216.301590 278.497742,215.669846 284.588196,215.002106 
	C283.223572,219.906647 278.481140,217.927399 275.234070,218.685745 
	C271.240265,219.618454 266.813904,218.698715 262.285278,218.277374 
z"/>
<path fill="#F6F6F6" opacity="1.000000" stroke="none" 
	d="
M175.088440,217.399780 
	C180.468826,217.132538 185.939789,217.261398 191.707260,217.682678 
	C186.395523,217.915359 180.787262,217.855621 175.088440,217.399780 
z"/>
<path fill="#F6F6F6" opacity="1.000000" stroke="none" 
	d="
M164.591461,213.212921 
	C167.377991,214.565765 169.804092,215.772476 172.615402,216.990204 
	C171.084595,220.464890 168.263916,217.925095 166.404236,217.401306 
	C163.750015,216.653717 161.521439,214.394989 159.047974,212.446747 
	C160.733597,212.430130 162.482315,212.748459 164.591461,213.212921 
z"/>
<path fill="#F6F6F6" opacity="1.000000" stroke="none" 
	d="
M292.356995,207.937134 
	C293.071136,204.048233 294.145966,200.098831 295.598145,196.061676 
	C294.889557,199.941483 293.803589,203.909058 292.356995,207.937134 
z"/>
<path fill="#F6F6F6" opacity="1.000000" stroke="none" 
	d="
M286.324341,214.957260 
	C286.759338,214.009979 287.537201,213.035004 288.655090,212.026291 
	C288.219147,212.971573 287.443176,213.950577 286.324341,214.957260 
z"/>
<path fill="#F6F6F6" opacity="1.000000" stroke="none" 
	d="
M290.315491,210.955917 
	C290.443695,210.353745 290.894958,209.712646 291.666016,209.026978 
	C291.536743,209.627274 291.087646,210.272125 290.315491,210.955917 
z"/>
<path fill="#3B8AD2" opacity="1.000000" stroke="none" 
	d="
M277.019348,212.919891 
	C275.400696,213.223755 273.782562,213.789780 272.163330,213.792923 
	C237.744675,213.859818 203.325912,213.864227 168.907166,213.871475 
	C168.413635,213.871567 167.920074,213.752960 167.066071,213.447647 
	C176.485931,213.115524 186.266251,213.025497 196.983368,212.943481 
	C205.268356,212.931824 212.616562,212.912170 220.436646,212.924316 
	C232.454102,212.956116 243.999664,212.956116 255.545227,212.956116 
	C255.898041,212.417358 256.250885,211.878601 256.603699,211.339844 
	C254.147644,208.492828 251.620621,205.703354 249.253799,202.784012 
	C246.407486,199.273254 243.697433,195.652008 241.400986,192.055695 
	C249.558716,191.769150 257.243866,191.505508 264.928986,191.241882 
	C265.090637,191.156509 265.252258,191.071121 265.837036,191.295731 
	C268.576904,199.686417 272.857544,205.723297 281.889465,207.128616 
	C282.704468,207.255432 283.293915,208.832245 283.988098,209.735687 
	C282.409760,210.584854 280.831390,211.434006 278.609131,212.239044 
	C277.649933,212.436584 277.334656,212.678238 277.019348,212.919891 
z"/>
<path fill="#1B79CC" opacity="1.000000" stroke="none" 
	d="
M219.964752,212.892517 
	C212.616562,212.912170 205.268356,212.931824 197.450043,212.918488 
	C194.187912,209.522705 191.264328,206.258743 188.642822,202.767929 
	C186.260544,199.595657 184.206787,196.176666 182.466064,192.458023 
	C190.272095,192.069824 197.620270,192.090012 204.973038,192.479401 
	C203.671631,195.974747 204.311523,198.453781 207.057373,200.620926 
	C211.014587,203.744125 214.814163,207.071533 218.596649,210.407455 
	C219.264114,210.996094 219.519226,212.052261 219.964752,212.892517 
z"/>
<path fill="#1B79CC" opacity="1.000000" stroke="none" 
	d="
M151.432800,168.049622 
	C151.072021,161.995590 151.058411,155.975159 151.397430,149.517639 
	C156.083420,153.144409 160.714752,156.944168 164.638489,161.371078 
	C166.995544,164.030411 169.314133,165.392303 172.819092,165.472549 
	C172.846069,171.957550 172.792648,177.981506 172.739243,184.005447 
	C164.898376,182.961823 161.371140,176.235809 156.279404,171.556519 
	C154.889481,170.279190 153.285645,169.234604 151.432800,168.049622 
z"/>
<path fill="#EEEEEE" opacity="1.000000" stroke="none" 
	d="
M172.820892,184.404388 
	C172.792648,177.981506 172.846069,171.957550 172.908508,165.010681 
	C172.854477,154.395813 172.791412,144.703873 172.818024,134.550125 
	C172.852158,127.066261 172.796646,120.044182 172.741150,113.022110 
	C172.832352,108.337845 172.923538,103.653587 173.217102,98.390984 
	C173.661255,97.600273 173.764297,97.334190 173.728622,97.014389 
	C173.728622,97.014389 173.942322,96.893005 174.150604,96.741302 
	C174.586060,96.454292 174.704971,96.254456 174.715652,95.990082 
	C174.937424,95.936615 175.159180,95.883148 175.688980,95.679977 
	C181.090714,95.530273 186.184387,95.530273 191.909897,95.530273 
	C191.909897,89.751335 191.909897,84.333595 192.372070,78.513954 
	C197.110886,81.263329 194.704727,85.761253 194.880051,89.585754 
	C195.265152,97.986046 194.010803,98.979073 185.530441,98.998169 
	C177.814087,99.015541 176.027069,100.676537 176.015579,108.279747 
	C175.976654,134.054062 175.962875,159.828629 176.083694,185.602417 
	C176.091949,187.362534 177.289581,189.117065 177.974091,190.993271 
	C178.014130,191.112335 178.130188,191.335144 178.130188,191.335144 
	C174.264709,190.856934 172.518494,188.682587 172.820892,184.404388 
z"/>
<path fill="#408DD3" opacity="1.000000" stroke="none" 
	d="
M204.968445,192.110199 
	C197.620270,192.090012 190.272095,192.069824 182.454590,192.082642 
	C180.865768,192.005264 179.746246,191.894852 178.378464,191.559784 
	C178.130188,191.335144 178.014130,191.112335 178.244568,191.052826 
	C178.655930,190.956161 178.836823,190.918991 179.017700,190.881836 
	C207.347992,190.969650 235.678284,191.057465 264.468781,191.193573 
	C257.243866,191.505508 249.558716,191.769150 240.940155,192.040863 
	C228.327316,192.069382 216.647873,192.089783 204.968445,192.110199 
z"/>
<path fill="#237FCF" opacity="1.000000" stroke="none" 
	d="
M172.728363,135.011917 
	C172.791412,144.703873 172.854477,154.395813 172.828110,164.549622 
	C169.314133,165.392303 166.995544,164.030411 164.638489,161.371078 
	C160.714752,156.944168 156.083420,153.144409 151.413727,149.051025 
	C151.067719,139.333618 151.058044,129.645721 151.401398,119.519867 
	C156.163681,123.215302 160.398544,127.561256 165.060638,131.386505 
	C167.180786,133.126083 170.146301,133.835312 172.728363,135.011917 
z"/>
<path fill="#2B83D2" opacity="1.000000" stroke="none" 
	d="
M172.818024,134.550125 
	C170.146301,133.835312 167.180786,133.126083 165.060638,131.386505 
	C160.398544,127.561256 156.163681,123.215302 151.418640,119.053085 
	C151.082870,111.193626 151.082870,103.362976 151.082870,94.312729 
	C152.678085,95.781464 153.625366,96.227501 153.692078,96.779884 
	C154.505585,103.515907 160.042328,106.985031 164.126755,111.251167 
	C165.660797,112.853470 169.254730,112.483620 172.325348,113.017494 
	C172.796646,120.044182 172.852158,127.066261 172.818024,134.550125 
z"/>
<path fill="#4592D7" opacity="1.000000" stroke="none" 
	d="
M174.572784,96.073364 
	C174.704971,96.254456 174.586060,96.454292 174.182434,96.622620 
	C174.109177,96.456917 174.250488,96.290596 174.572784,96.073364 
z"/>
<path fill="#4592D7" opacity="1.000000" stroke="none" 
	d="
M173.556671,97.141953 
	C173.764297,97.334190 173.661255,97.600273 173.229736,97.927315 
	C173.065811,97.744690 173.180725,97.487198 173.556671,97.141953 
z"/>
<path fill="#61A8E7" opacity="1.000000" stroke="none" 
	d="
M317.275818,91.456436 
	C318.926331,92.022736 320.666321,92.839088 321.992126,94.093323 
	C326.503082,98.360718 330.809418,102.844826 335.333801,107.097328 
	C336.337952,108.041153 337.914368,108.376144 339.591370,108.997467 
	C339.967010,116.356941 339.978577,123.710396 339.546326,131.532227 
	C334.387238,132.789383 330.983337,130.925552 327.746124,127.454338 
	C325.010773,124.521324 321.337830,122.462761 318.056580,119.548180 
	C317.807281,113.409180 317.581268,107.739189 317.355286,102.069191 
	C317.295349,98.681854 317.235413,95.294525 317.275818,91.456436 
z"/>
<path fill="#5AA3E4" opacity="1.000000" stroke="none" 
	d="
M318.079865,120.017181 
	C321.337830,122.462761 325.010773,124.521324 327.746124,127.454338 
	C330.983337,130.925552 334.387238,132.789383 339.532776,132.000702 
	C339.976044,137.705261 339.989014,143.409698 340.040100,149.584747 
	C337.987244,153.397491 335.896210,156.739594 333.475922,160.185837 
	C331.942169,158.204849 331.053802,155.831787 329.469757,154.092316 
	C325.750671,150.008392 321.741852,146.182449 317.743439,142.364044 
	C316.992615,141.647018 315.745361,141.449890 314.398438,140.800186 
	C314.069672,140.587509 314.167358,140.183365 314.167358,140.183365 
	C319.285736,137.508698 316.320923,132.657654 317.499023,128.082397 
	C317.878876,124.884354 317.979370,122.450768 318.079865,120.017181 
z"/>
<path fill="#EFEFEF" opacity="1.000000" stroke="none" 
	d="
M286.741821,260.865417 
	C287.317932,258.554901 287.792419,256.634308 288.632996,253.231659 
	C290.203430,259.235413 291.424561,263.903809 292.758514,269.003479 
	C289.991333,269.003479 287.628174,269.003479 284.722076,269.003479 
	C285.401306,266.259674 286.020752,263.757507 286.741821,260.865417 
z"/>
<path fill="#4695DC" opacity="1.000000" stroke="none" 
	d="
M200.181931,91.012207 
	C200.144608,81.656418 200.107300,72.300621 200.127533,62.480370 
	C202.462402,63.183067 205.130554,63.926811 206.942001,65.598740 
	C211.888535,70.164299 216.473755,75.121323 221.533539,79.973015 
	C221.885757,89.040939 221.906555,98.059143 221.572479,107.481293 
	C218.023300,104.640129 215.087708,101.072868 211.561478,98.241066 
	C208.079071,95.444458 203.999527,93.391434 200.181931,91.012207 
z"/>
<path fill="#F6F6F6" opacity="1.000000" stroke="none" 
	d="
M140.714279,250.075775 
	C146.376755,251.134460 148.211700,253.211121 147.536484,257.493317 
	C146.705536,262.763184 142.936951,263.266083 137.921097,262.773834 
	C137.921097,259.144745 137.815903,255.437866 138.026947,251.749069 
	C138.061234,251.149658 139.496170,250.630356 140.714279,250.075775 
z"/>
<path fill="#368BD7" opacity="1.000000" stroke="none" 
	d="
M222.409760,135.627716 
	C223.232864,136.930023 223.834854,137.928482 225.070465,139.338409 
	C228.351624,139.844269 231.006775,139.849884 233.642868,140.077011 
	C234.688049,140.167068 236.031464,140.448135 236.656891,141.156357 
	C240.328445,145.313950 243.942780,149.534180 247.346802,153.911835 
	C249.794403,157.059479 251.883881,160.485596 253.688019,163.785370 
	C247.161316,163.810440 241.079727,163.837646 234.990417,163.510651 
	C234.877182,162.675430 234.940308,161.970428 234.641846,161.745697 
	C223.379135,153.265610 213.622162,143.275604 204.689926,132.405258 
	C203.856430,131.390900 201.719666,131.447418 200.188019,131.006714 
	C200.149857,124.319176 200.111710,117.631645 200.482727,110.481323 
	C204.610992,113.045334 208.461792,115.926628 212.011505,119.140503 
	C215.451965,122.255440 218.582916,125.712212 221.849823,129.018860 
	C221.962753,131.120544 222.075699,133.222214 222.409760,135.627716 
z"/>
<path fill="#3E90D9" opacity="1.000000" stroke="none" 
	d="
M221.892105,128.550217 
	C218.582916,125.712212 215.451965,122.255440 212.011505,119.140503 
	C208.461792,115.926628 204.610992,113.045334 200.540192,110.017159 
	C200.147049,103.990784 200.105621,97.965782 200.123062,91.476501 
	C203.999527,93.391434 208.079071,95.444458 211.561478,98.241066 
	C215.087708,101.072868 218.023300,104.640129 221.538361,107.949539 
	C221.884216,114.703079 221.909302,121.392326 221.892105,128.550217 
z"/>
<path fill="#F6F6F6" opacity="1.000000" stroke="none" 
	d="
M179.010895,190.421478 
	C178.836823,190.918991 178.655930,190.956161 178.204529,190.933762 
	C177.289581,189.117065 176.091949,187.362534 176.083694,185.602417 
	C175.962875,159.828629 175.976654,134.054062 176.015579,108.279747 
	C176.027069,100.676537 177.814087,99.015541 185.530441,98.998169 
	C194.010803,98.979073 195.265152,97.986046 194.880051,89.585754 
	C194.704727,85.761253 197.110886,81.263329 192.446854,78.050064 
	C192.011566,77.235039 191.963669,76.482010 191.993073,75.357758 
	C194.130325,76.619324 196.190308,78.252113 198.575165,79.930458 
	C198.927795,84.680443 198.955521,89.384872 198.941132,94.556610 
	C198.231186,95.438728 197.256195,95.694138 196.944885,96.293983 
	C194.782272,100.460960 191.286346,101.221497 186.928070,101.075615 
	C179.011063,100.810616 178.999298,101.005394 178.999130,109.129211 
	C178.998566,136.073181 179.002136,163.017136 179.010895,190.421478 
z"/>
<path fill="#3287D5" opacity="1.000000" stroke="none" 
	d="
M200.124298,131.469070 
	C201.719666,131.447418 203.856430,131.390900 204.689926,132.405258 
	C213.622162,143.275604 223.379135,153.265610 234.641846,161.745697 
	C234.940308,161.970428 234.877182,162.675430 234.527832,163.591202 
	C228.032288,163.914154 221.991577,163.802368 215.729446,163.489960 
	C214.920578,163.241730 214.333145,163.194138 213.415771,163.134949 
	C212.021011,162.871811 210.956177,162.620239 209.891357,162.368668 
	C204.017227,158.856354 200.190811,154.023102 199.868683,146.496582 
	C199.903015,141.372192 199.981812,136.651810 200.124298,131.469070 
z"/>
<path fill="#62A5E1" opacity="1.000000" stroke="none" 
	d="
M291.068359,87.980255 
	C291.096100,97.674873 291.123871,107.369499 290.715515,117.527512 
	C288.771484,117.076324 287.056976,116.382988 285.794922,115.204956 
	C282.264954,111.910011 279.022308,108.304909 275.458557,105.049591 
	C273.921967,103.645981 271.873596,102.802574 269.165985,101.165504 
	C269.165985,112.440323 269.165985,122.239922 269.126312,132.503052 
	C269.120239,141.322159 269.153839,149.677734 269.144379,158.496872 
	C269.126343,164.975067 269.151367,170.989685 269.139648,177.453308 
	C268.827850,181.253189 268.552826,184.604050 268.277771,187.954926 
	C268.225769,159.289886 268.173798,130.624832 268.131348,101.128952 
	C267.085846,98.874893 266.030823,97.451675 265.155579,95.763428 
	C265.267975,94.208458 265.716492,92.456406 265.045410,91.707283 
	C261.858276,88.149376 258.586609,84.600990 254.931000,81.544426 
	C249.404007,76.923141 244.192154,71.495987 235.720505,72.922165 
	C233.058212,73.370354 231.906509,73.919777 231.964188,76.745903 
	C232.093216,83.068977 231.973068,89.397141 231.986862,95.858337 
	C232.019318,95.993446 232.095428,96.260727 232.095428,96.260727 
	C231.759003,88.891930 231.349655,81.524445 231.217575,74.151985 
	C231.206390,73.528038 233.045105,72.321159 234.032715,72.312332 
	C247.011520,72.196243 259.999664,71.984634 272.968262,72.372963 
	C278.939362,72.551765 284.235870,75.145683 288.011353,81.029678 
	C289.187592,83.769066 290.127960,85.874657 291.068359,87.980255 
z"/>
<path fill="#408DD3" opacity="1.000000" stroke="none" 
	d="
M268.126831,188.234100 
	C268.552826,184.604050 268.827850,181.253189 269.456177,177.511719 
	C274.570496,181.945160 279.183563,186.930450 284.170837,191.508041 
	C285.979828,193.168457 288.683105,193.854553 290.978333,194.985199 
	C291.378815,200.940536 288.850464,205.614761 284.299805,209.638214 
	C283.293915,208.832245 282.704468,207.255432 281.889465,207.128616 
	C272.857544,205.723297 268.576904,199.686417 266.108154,191.254578 
	C266.629364,190.106705 267.302643,189.309982 268.126831,188.234100 
z"/>
<path fill="#4592D7" opacity="1.000000" stroke="none" 
	d="
M254.133118,163.787491 
	C251.883881,160.485596 249.794403,157.059479 247.346802,153.911835 
	C243.942780,149.534180 240.328445,145.313950 236.656891,141.156357 
	C236.031464,140.448135 234.688049,140.167068 233.642868,140.077011 
	C231.006775,139.849884 228.351624,139.844269 225.386536,139.505127 
	C225.507248,139.214127 225.945541,139.167847 226.706818,139.044617 
	C236.587952,139.040009 246.148117,139.032196 255.702072,139.271698 
	C257.124634,139.307373 258.518005,140.506989 259.911804,142.036835 
	C259.898712,149.793777 259.898712,156.681976 259.898712,164.044388 
	C257.655487,163.944443 255.894302,163.865967 254.133118,163.787491 
z"/>
<path fill="#E7E8E9" opacity="1.000000" stroke="none" 
	d="
M253.688019,163.785370 
	C255.894302,163.865967 257.655487,163.944443 259.898712,164.044388 
	C259.898712,156.681976 259.898712,149.793777 259.977539,142.439926 
	C261.366119,143.776413 263.572357,145.469940 263.806488,147.402390 
	C264.363068,151.996552 264.054260,156.705048 263.968353,161.365005 
	C263.875366,166.409912 259.967621,168.845306 255.016006,168.638748 
	C244.931381,168.218063 234.800858,168.266052 224.716827,168.725662 
	C219.602661,168.958786 212.062302,166.718384 209.926422,162.721436 
	C210.956177,162.620239 212.021011,162.871811 213.642044,163.334991 
	C214.782471,163.594604 215.366669,163.642593 215.950882,163.690582 
	C221.991577,163.802368 228.032288,163.914154 234.535553,163.945404 
	C241.079727,163.837646 247.161316,163.810440 253.688019,163.785370 
z"/>
<path fill="#E7E8E9" opacity="1.000000" stroke="none" 
	d="
M264.975769,96.028465 
	C266.030823,97.451675 267.085846,98.874893 268.083374,100.664124 
	C260.624390,100.683868 253.225861,100.215431 245.820343,100.035561 
	C241.112442,99.921211 236.301041,100.614166 232.333405,96.497299 
	C232.095428,96.260727 232.019318,95.993446 232.447540,95.969971 
	C243.575775,95.973816 254.275772,96.001137 264.975769,96.028465 
z"/>
<path fill="#7EB7EC" opacity="1.000000" stroke="none" 
	d="
M318.056580,119.548172 
	C317.979370,122.450768 317.878876,124.884354 317.560608,127.632210 
	C317.275482,119.620964 317.208069,111.295464 317.247986,102.519577 
	C317.581268,107.739189 317.807281,113.409180 318.056580,119.548172 
z"/>
<path fill="#F6F6F6" opacity="1.000000" stroke="none" 
	d="
M291.432770,87.988419 
	C290.127960,85.874657 289.187592,83.769066 288.181976,81.324600 
	C292.553894,80.779182 292.882782,84.358925 293.953186,87.651886 
	C293.255524,88.011856 292.526367,88.004219 291.432770,87.988419 
z"/>
<path fill="#F6F6F6" opacity="1.000000" stroke="none" 
	d="
M295.985229,100.579750 
	C295.316071,98.312027 294.656342,95.598175 294.001343,92.440384 
	C294.668945,94.708832 295.331787,97.421227 295.985229,100.579750 
z"/>
<path fill="#BEC5CD" opacity="1.000000" stroke="none" 
	d="
M313.691833,140.117584 
	C314.167358,140.183365 314.069672,140.587509 314.028931,140.791351 
	C309.295410,141.002136 304.602600,141.009064 299.440674,141.018723 
	C303.719849,140.698242 308.468079,140.375031 313.691833,140.117584 
z"/>
<path fill="#4E9BDF" opacity="1.000000" stroke="none" 
	d="
M269.165985,132.039520 
	C269.165985,122.239922 269.165985,112.440323 269.165985,101.165504 
	C271.873596,102.802574 273.921967,103.645981 275.458557,105.049591 
	C279.022308,108.304909 282.264954,111.910011 285.794922,115.204956 
	C287.056976,116.382988 288.771484,117.076324 290.645569,117.991608 
	C291.046692,127.350594 291.081665,136.708893 290.661560,146.533585 
	C288.500793,146.196213 286.501587,145.723541 285.147522,144.523163 
	C281.817139,141.570847 278.951477,138.085510 275.561371,135.212891 
	C273.798828,133.719360 271.320801,133.070129 269.165985,132.039520 
z"/>
<path fill="#4695DC" opacity="1.000000" stroke="none" 
	d="
M269.126312,132.503052 
	C271.320801,133.070129 273.798828,133.719360 275.561371,135.212891 
	C278.951477,138.085510 281.817139,141.570847 285.147522,144.523163 
	C286.501587,145.723541 288.500793,146.196213 290.585266,146.996796 
	C291.019775,156.019135 291.075439,165.044693 290.688324,174.531433 
	C287.451935,172.571136 284.733276,170.055786 281.846893,167.750488 
	C277.691040,164.431335 273.413208,161.264908 269.187439,158.033295 
	C269.153839,149.677734 269.120239,141.322159 269.126312,132.503052 
z"/>
<path fill="#3E90D9" opacity="1.000000" stroke="none" 
	d="
M269.144379,158.496872 
	C273.413208,161.264908 277.691040,164.431335 281.846893,167.750488 
	C284.733276,170.055786 287.451935,172.571136 290.608948,174.994415 
	C291.025848,181.351456 291.079346,187.706726 291.055603,194.523605 
	C288.683105,193.854553 285.979828,193.168457 284.170837,191.508041 
	C279.183563,186.930450 274.570496,181.945160 269.492920,177.062714 
	C269.151367,170.989685 269.126343,164.975067 269.144379,158.496872 
z"/>
<path fill="#408DD3" opacity="1.000000" stroke="none" 
	d="
M277.329346,212.906616 
	C277.334656,212.678238 277.649933,212.436584 278.272949,212.169006 
	C278.266907,212.393173 277.953125,212.643250 277.329346,212.906616 
z"/>
<path fill="#2580CF" opacity="1.000000" stroke="none" 
	d="
M204.973038,192.479401 
	C216.647873,192.089783 228.327316,192.069382 240.467560,192.063782 
	C243.697433,195.652008 246.407486,199.273254 249.253799,202.784012 
	C251.620621,205.703354 254.147644,208.492828 256.603699,211.339844 
	C256.250885,211.878601 255.898041,212.417358 255.545227,212.956116 
	C243.999664,212.956116 232.454102,212.956116 220.436646,212.924316 
	C219.519226,212.052261 219.264114,210.996094 218.596649,210.407455 
	C214.814163,207.071533 211.014587,203.744125 207.057373,200.620926 
	C204.311523,198.453781 203.671631,195.974747 204.973038,192.479401 
z"/>
<path fill="#4592D7" opacity="1.000000" stroke="none" 
	d="
M215.729446,163.489960 
	C215.366669,163.642593 214.782471,163.594604 213.971985,163.346558 
	C214.333145,163.194138 214.920578,163.241730 215.729446,163.489960 
z"/>
<path fill="#509DE0" opacity="1.000000" stroke="none" 
	d="
M265.155579,95.763428 
	C254.275772,96.001137 243.575775,95.973816 232.415100,95.834862 
	C231.973068,89.397141 232.093216,83.068977 231.964188,76.745903 
	C231.906509,73.919777 233.058212,73.370354 235.720505,72.922165 
	C244.192154,71.495987 249.404007,76.923141 254.931000,81.544426 
	C258.586609,84.600990 261.858276,88.149376 265.045410,91.707283 
	C265.716492,92.456406 265.267975,94.208458 265.155579,95.763428 
z"/>
</svg>